<?xml version="1.0" encoding="utf-8"?>
<!-- Generator: Adobe Illustrator 16.0.0, SVG Export Plug-In . SVG Version: 6.00 Build 0)  -->
<!DOCTYPE svg PUBLIC "-//W3C//DTD SVG 1.1//EN" "http://www.w3.org/Graphics/SVG/1.1/DTD/svg11.dtd">
<svg version="1.1" id="Layer_1" xmlns="http://www.w3.org/2000/svg" xmlns:xlink="http://www.w3.org/1999/xlink" x="0px" y="0px"
	 width="900px" height="900px" viewBox="0 0 900 900" enable-background="new 0 0 900 900" xml:space="preserve">
<g>
	<circle fill-rule="evenodd" clip-rule="evenodd" fill="#BC3535" cx="234.434" cy="450" r="113.418"/>
	<g>
		<g>
			<g>
				<path fill-rule="evenodd" clip-rule="evenodd" fill="#FFFFFF" d="M211.83,460c0-5.586-5.454-11-12.182-11h-14.619
					c-6.728,0-12.182,5.414-12.182,11l0,0c0,5.588,5.455,11,12.182,11h14.619C206.376,471,211.83,465.588,211.83,460L211.83,460z"/>
				<path fill="#383838" d="M199.648,473h-14.619c-7.499,0-14.077-6.047-14.077-13s6.578-13,14.077-13h14.619
					c7.498,0,14.077,6.047,14.077,13S207.146,473,199.648,473z M185.029,451c-5.888,0-10.288,4.629-10.288,9c0,4.373,4.4,9,10.288,9
					h14.619c5.888,0,10.288-4.627,10.288-9c0-4.371-4.4-9-10.288-9H185.029z"/>
			</g>
			<g>
				<path fill-rule="evenodd" clip-rule="evenodd" fill="#FFFFFF" d="M296.021,460c0-5.586-5.454-11-12.183-11H269.22
					c-6.728,0-12.182,5.414-12.182,11l0,0c0,5.588,5.454,11,12.182,11h14.619C290.567,471,296.021,465.588,296.021,460L296.021,460z
					"/>
				<path fill="#383838" d="M283.839,473H269.22c-7.499,0-14.077-6.047-14.077-13s6.578-13,14.077-13h14.619
					c7.5,0,14.078,6.047,14.078,13S291.338,473,283.839,473z M269.22,451c-5.888,0-10.287,4.629-10.287,9c0,4.373,4.399,9,10.287,9
					h14.619c5.888,0,10.289-4.627,10.289-9c0-4.371-4.4-9-10.289-9H269.22z"/>
			</g>
		</g>
		<g>
			<g>
				<path fill-rule="evenodd" clip-rule="evenodd" fill="#383838" d="M204.406,441.5c0-8.277-5.763-15.5-12.87-15.5h-15.443
					c-7.108,0-12.87,7.223-12.87,15.5l0,0c0,8.277,5.761,15.5,12.87,15.5h15.443C198.644,457,204.406,449.777,204.406,441.5
					L204.406,441.5z"/>
			</g>
			<g>
				<path fill-rule="evenodd" clip-rule="evenodd" fill="#383838" d="M305.645,441.5c0-8.277-5.761-15.5-12.869-15.5h-15.444
					c-7.106,0-12.869,7.223-12.869,15.5l0,0c0,8.277,5.762,15.5,12.869,15.5h15.444C299.883,457,305.645,449.777,305.645,441.5
					L305.645,441.5z"/>
			</g>
		</g>
		<g>
			<path fill-rule="evenodd" clip-rule="evenodd" fill="#FFFFFF" d="M287,463.729C287,492.598,263.597,516,234.729,516h-0.457
				C205.403,516,182,492.598,182,463.729v-20.457C182,414.402,205.403,391,234.271,391h0.457C263.597,391,287,414.402,287,443.271
				V463.729z"/>
			<path fill="#383838" d="M234.688,517h-0.297C204.524,517,180,493.695,180,463.826V442.9c0-29.867,24.524-53.9,54.391-53.9h0.297
				C264.554,389,289,413.033,289,442.9v20.926C289,493.695,264.554,517,234.688,517z M285,442.377
				C285,414.555,262.445,392,234.623,392h-0.246C206.555,392,184,414.555,184,442.377v21.246C184,491.445,206.555,514,234.377,514
				h0.246C262.445,514,285,491.445,285,463.623V442.377z"/>
		</g>
		<g>
			<path fill-rule="evenodd" clip-rule="evenodd" fill="#383838" d="M270.031,494.523c2.379-3.594,1.645-8.895-1.994-11.305
				l-28.625-18.965c-3.64-2.408-8.808-1.018-11.187,2.572l0,0c-2.379,3.592-1.645,8.895,1.995,11.307l28.626,18.961
				C262.483,499.504,267.652,498.111,270.031,494.523L270.031,494.523z"/>
		</g>
		<g>
			<path fill-rule="evenodd" clip-rule="evenodd" fill="#383838" d="M257.885,411c0-1.17-0.961-2-2.145-2h-42.612
				c-1.185,0-2.146,0.83-2.146,2l0,0c0,1.17,0.961,2,2.146,2h42.612C256.923,413,257.885,412.17,257.885,411L257.885,411z"/>
		</g>
		<g>
			<path fill-rule="evenodd" clip-rule="evenodd" fill="#383838" d="M248.447,402.5c0-1.168-0.961-1.5-2.144-1.5h-23.738
				c-1.186,0-2.146,0.332-2.146,1.5l0,0c0,1.17,0.96,1.5,2.146,1.5h23.738C247.486,404,248.447,403.67,248.447,402.5L248.447,402.5z
				"/>
		</g>
		<g>
			<g>
				<g>
					<path fill-rule="evenodd" clip-rule="evenodd" fill="#383838" d="M239.487,439.852c-1.228-1.852-0.849-4.584,1.027-5.828
						l14.755-9.773c1.875-1.242,4.541-0.525,5.766,1.324l0,0c1.227,1.854,0.848,4.586-1.028,5.828l-14.755,9.775
						C243.377,442.42,240.713,441.701,239.487,439.852L239.487,439.852z"/>
				</g>
				<g>
					<circle fill-rule="evenodd" clip-rule="evenodd" fill="#383838" cx="252.594" cy="449.873" r="5.577"/>
				</g>
			</g>
			<g>
				<g>
					<circle fill-rule="evenodd" clip-rule="evenodd" fill="#383838" cx="216.56" cy="449.873" r="5.577"/>
				</g>
				<g>
					<path fill-rule="evenodd" clip-rule="evenodd" fill="#383838" d="M229.534,439.852c1.227-1.852,0.848-4.584-1.028-5.828
						l-14.755-9.773c-1.876-1.242-4.541-0.525-5.766,1.324l0,0c-1.226,1.854-0.848,4.586,1.029,5.828l14.754,9.775
						C225.644,442.42,228.308,441.701,229.534,439.852L229.534,439.852z"/>
				</g>
			</g>
		</g>
		<g>
			<path fill-rule="evenodd" clip-rule="evenodd" fill="#383838" d="M262.753,469.577c0.94,2.115-0.185,3.423-2.5,3.423h-7.023
				c-2.316,0-6.054-0.017-8.306-0.554l-6.18-1.265c-2.253-0.537-5.929-0.392-8.169,0.196l-4.937,0.925
				c-2.24,0.588-5.968,0.697-8.283,0.697h-8.739c-2.316,0-3.441-1.308-2.5-3.423l3.444-7.739c0.941-2.115,3.604-3.838,5.92-3.838
				h37.908c2.315,0,4.98,1.723,5.921,3.838L262.753,469.577z"/>
		</g>
		<g>
			<g>
				<path fill-rule="evenodd" clip-rule="evenodd" fill="#FFFFFF" d="M263.19,496.943c-3.581,0-6.495-2.914-6.495-6.496
					c0-3.58,2.914-6.496,6.495-6.496c3.582,0,6.496,2.916,6.496,6.496C269.686,494.029,266.772,496.943,263.19,496.943z"/>
			</g>
			<g>
				<g>
					<path fill="#383838" d="M263.19,485.215c2.885,0,5.232,2.348,5.232,5.232s-2.347,5.232-5.232,5.232s-5.232-2.348-5.232-5.232
						S260.306,485.215,263.19,485.215 M263.19,482.689c-4.284,0-7.758,3.473-7.758,7.758s3.474,7.758,7.758,7.758
						c4.285,0,7.758-3.473,7.758-7.758S267.475,482.689,263.19,482.689L263.19,482.689z"/>
				</g>
			</g>
		</g>
	</g>
	<g>
		<g id="lLH4Wg_2_">
			<g>
				<path fill-rule="evenodd" clip-rule="evenodd" fill="#383838" d="M706.353,485.166c1.759,0.455,3.54,0.84,5.273,1.379
					c11.179,3.469,17.93,13.592,17.358,25.965c-0.528,11.402-6.729,20.055-16.743,23.371c-10.678,3.529-22.457,0.521-28.994-7.531
					c-10.819-13.326-6.678-39.646,16.032-42.74c0.34-0.045,0.649-0.291,0.974-0.443
					C702.284,485.166,704.318,485.166,706.353,485.166z M703.52,488.836c-12.978-0.092-22.057,8.92-22.188,22.029
					c-0.135,13.502,8.836,22.98,21.821,23.049c12.743,0.07,21.969-9.236,22.08-22.271
					C725.351,498.266,716.461,488.93,703.52,488.836z"/>
				<path fill-rule="evenodd" clip-rule="evenodd" fill="#383838" d="M778.984,536.727c-3.095,0.617-5.043-0.785-6.862-3.234
					c-3.744-5.031-7.778-9.846-11.735-14.715c-0.479-0.592-1.218-1.363-1.854-1.377c-4.772-0.115-9.552-0.064-14.572-0.064
					c0,6.504,0,12.744,0,19.248c-1.293,0.061-2.351,0.109-3.603,0.168c0-16.955,0-33.787,0-50.375
					c8.104,0,16.156-0.576,24.073,0.176c6.952,0.656,11.986,7.205,12.312,14.043c0.359,7.516-3.599,13.291-10.697,15.59
					c-0.849,0.275-1.708,0.52-2.898,0.879c5.389,6.504,10.612,12.807,15.836,19.111
					C778.984,536.359,778.984,536.543,778.984,536.727z M743.942,514.092c5.142,0,9.928,0.006,14.715-0.006
					c1.106-0.004,2.22-0.006,3.317-0.117c6.285-0.65,10.63-5.207,11.179-11.686c0.477-5.641-3.094-11.463-8.848-12.346
					c-6.653-1.018-13.501-0.801-20.363-1.123C743.942,497.576,743.942,505.658,743.942,514.092z"/>
				<path fill-rule="evenodd" clip-rule="evenodd" fill="#383838" d="M379.782,485.721c3.302-0.615,4.522,1.268,5.607,4.055
					c4.922,12.607,10.05,25.135,15.113,37.689c0.308,0.76,0.698,1.486,1.198,2.543c3.26-8.221,6.392-16.156,9.554-24.078
					c2.322-5.814,4.819-11.562,6.97-17.441c0.93-2.545,2.236-3.291,4.985-2.215c-2.067,4.998-4.137,9.984-6.197,14.975
					c-4.598,11.152-9.18,22.312-13.812,33.451c-0.32,0.771-0.988,1.396-1.494,2.09c-0.618-0.707-1.477-1.314-1.82-2.139
					c-6.546-15.625-13.03-31.281-19.536-46.924c-0.134-0.324-0.375-0.602-0.568-0.896
					C379.782,486.459,379.782,486.09,379.782,485.721z"/>
				<path fill-rule="evenodd" clip-rule="evenodd" fill="#383838" d="M545.666,536.727c0-17.141,0-33.832,0-50.938
					c8.525,0.467,17.046-1.146,25.33,1.312c11.427,3.395,18.426,15.539,16.439,28.023c-2.195,13.799-11.293,21.564-25.326,21.6
					C556.687,536.74,551.265,536.727,545.666,536.727z M549.467,533.232c5.408,0,10.588,0.318,15.712-0.078
					c7.183-0.559,12.876-4.021,16.158-10.572c3.741-7.467,3.738-15.115-0.081-22.605c-2.815-5.523-7.401-9.318-13.443-10.059
					c-5.977-0.732-12.114-0.16-18.346-0.16C549.467,504.031,549.467,518.496,549.467,533.232z"/>
				<path fill-rule="evenodd" clip-rule="evenodd" fill="#383838" d="M472.037,536.484c-2.556,0.756-4.037,0.072-5.011-2.41
					c-1.336-3.428-2.963-6.758-4.708-10c-0.486-0.904-1.819-1.902-2.781-1.922c-8.035-0.152-16.075-0.133-24.113-0.014
					c-0.826,0.014-1.983,0.852-2.388,1.623c-1.757,3.342-3.298,6.797-4.902,10.219c-1.426,3.039-1.419,3.041-5.165,2.422
					c2.38-5.037,4.74-10.014,7.083-15c5.255-11.174,10.487-22.359,15.784-33.514c0.39-0.824,1.214-1.438,1.836-2.152
					c0.619,0.707,1.443,1.314,1.828,2.133c7.284,15.518,14.518,31.055,21.75,46.594
					C471.554,535.113,471.773,535.803,472.037,536.484z M447.638,491.752c-4.304,9.246-8.399,18.047-12.584,27.037
					c8.563,0,16.651,0,25.1,0C455.991,509.797,451.938,501.039,447.638,491.752z"/>
				<path fill-rule="evenodd" clip-rule="evenodd" fill="#383838" d="M639.55,536.467c-2.636,0.76-4.124,0.094-5.089-2.406
					c-1.29-3.342-3.112-6.48-4.479-9.801c-0.726-1.76-1.755-2.256-3.566-2.234c-7.575,0.09-15.153,0.096-22.729-0.002
					c-1.812-0.025-2.839,0.445-3.562,2.195c-1.337,3.232-3.145,6.281-4.363,9.549c-0.952,2.545-2.34,3.559-5.152,2.754
					c0.161-0.533,0.264-1.117,0.509-1.637c7.34-15.592,14.682-31.182,22.073-46.75c0.43-0.902,1.282-1.604,1.938-2.4
					c0.648,0.797,1.493,1.502,1.917,2.404c7.17,15.268,14.287,30.553,21.414,45.84C638.836,534.787,639.18,535.617,639.55,536.467z
					 M627.604,518.785c-4.216-9.096-8.275-17.857-12.521-27.016c-4.261,9.139-8.364,17.943-12.594,27.016
					C611.011,518.785,619.104,518.785,627.604,518.785z"/>
				<path fill-rule="evenodd" clip-rule="evenodd" fill="#383838" d="M674.667,485.986c0,1.117,0,2.006,0,3.117
					c-5.448,0-10.771,0-16.434,0c0,15.928,0,31.641,0,47.486c-1.319,0-2.294,0-3.673,0c0-15.703,0-31.408,0-47.35
					c-5.716,0-11.04,0-16.579,0c0-1.193,0-2.145,0-3.254C650.121,485.986,662.26,485.986,674.667,485.986z"/>
				<path fill-rule="evenodd" clip-rule="evenodd" fill="#383838" d="M522.568,488.961c-2.938,0-5.691,0-8.701,0
					c-0.074-1.029-0.137-1.891-0.213-2.949c7.264,0,14.322,0,21.54,0c0,0.916,0,1.777,0,2.922c-2.963,0-5.786,0-8.759,0
					c0,15.021,0,29.762,0,44.836c3.132,0,6.218,0,9.438,0c0,1.113,0,1.887,0,2.811c-7.561,0-15.007,0-22.681,0
					c-0.066-0.77-0.136-1.541-0.233-2.674c3.274,0,6.358,0,9.609,0C522.568,518.834,522.568,504.104,522.568,488.961z"/>
				<path fill-rule="evenodd" clip-rule="evenodd" fill="#383838" d="M509.497,533.371c0,1.223,0,2.117,0,3.186
					c-9.51,0-18.971,0-28.62,0c0-16.814,0-33.633,0-50.586c1.169,0,2.224,0,3.526,0c0,15.777,0,31.428,0,47.4
					C492.894,533.371,501.146,533.371,509.497,533.371z"/>
			</g>
		</g>
		<g id="_x31_daYUQ_2_">
			<g>
				<path fill-rule="evenodd" clip-rule="evenodd" fill="#383838" d="M379.782,364.092c3.174,0,6.146-0.002,9.12,0
					c13.038,0.012,26.078-0.125,39.113,0.074c18.271,0.277,31.377,13.758,31.257,31.975c-0.045,7.266-3.09,13.279-8.117,18.014
					c2.731,2.717,5.769,5.072,7.976,8.041c9.232,12.439,5.438,40.32-18.91,45.818c-3.151,0.713-6.44,1.115-9.669,1.137
					c-16.39,0.115-32.782,0.059-49.173,0.053c-0.461,0-0.924-0.055-1.596-0.098C379.782,434.207,379.782,399.344,379.782,364.092z
					 M407.321,445.236c7.015,0,13.884,0.041,20.752-0.018c5.015-0.039,8.284-3.447,8.321-8.504c0.038-5.291-3.117-8.762-8.261-8.84
					c-6.333-0.092-12.668-0.033-19.004-0.018c-0.616,0.002-1.233,0.158-1.809,0.236C407.321,433.83,407.321,439.389,407.321,445.236
					z M407.286,405.496c6.083,0,11.848,0.143,17.6-0.045c4.488-0.15,7.444-3.932,7.341-8.861c-0.102-4.797-3.071-8.312-7.479-8.473
					c-4.833-0.18-9.679-0.088-14.519-0.096c-0.977-0.002-1.954,0.084-2.943,0.131C407.286,394.062,407.286,399.623,407.286,405.496z
					"/>
				<path fill-rule="evenodd" clip-rule="evenodd" fill="#383838" d="M528.553,471.746c-11.216-0.191-21.695-2.871-31.126-9.139
					c-10.56-7.02-17.174-16.812-20.256-29.025c-3.052-12.09-2.944-24.168,1.021-36.033c5.146-15.395,15.654-25.846,30.86-31.109
					c17.942-6.215,35.402-4.803,51.584,5.623c11.439,7.367,18.255,18.184,20.969,31.385c2.721,13.238,1.971,26.34-3.86,38.746
					c-7.767,16.521-21.112,25.697-38.914,28.719c-1.554,0.264-3.13,0.443-4.704,0.566
					C532.272,471.621,530.41,471.658,528.553,471.746z M555.67,417.291c-0.253-2.305-0.396-4.629-0.779-6.91
					c-1.812-10.789-10.098-19.127-20.771-20.986c-11.415-1.988-22.631,3.008-27.923,12.516c-3.541,6.359-3.972,13.256-3.242,20.305
					c1.576,15.215,15.385,25.668,30.457,23.092C546.81,443.016,555.41,432.111,555.67,417.291z"/>
				<path fill-rule="evenodd" clip-rule="evenodd" fill="#383838" d="M621.154,436.934c0.63,5.365,4.174,7.953,8.804,9.348
					c6.265,1.887,12.489,1.801,18.49-1.051c3.993-1.902,5.74-4.885,5.422-8.863c-0.291-3.637-2.618-6.514-6.882-7.41
					c-4.162-0.879-8.448-1.264-12.701-1.604c-7.651-0.607-15.12-1.875-22.131-5.172c-12.127-5.703-17.956-17.271-15.687-30.562
					c2.087-12.219,9.074-20.498,20.375-24.85c16.397-6.312,32.525-5.693,47.468,4.229c8.99,5.971,13.177,14.811,13.049,25.855
					c-8.604,0-17.033,0-25.457,0c-1.376-6.111-4.823-9.393-11.132-9.734c-3.654-0.195-7.46,0.068-11.007,0.918
					c-4.561,1.09-6.819,4.621-6.59,8.822c0.209,3.844,2.438,6.508,7.118,7.383c5.655,1.059,11.438,1.438,17.113,2.422
					c4.926,0.854,9.907,1.75,14.638,3.311c14.588,4.811,20.289,15.855,18.892,30.891c-1.235,13.295-9.408,21.621-21.269,26.285
					c-17.34,6.818-34.505,6.172-50.587-3.717c-9.558-5.877-14.079-14.977-13.952-26.5
					C603.877,436.934,612.476,436.934,621.154,436.934z"/>
				<path fill-rule="evenodd" clip-rule="evenodd" fill="#383838" d="M692.962,436.885c8.857,0,17.385,0,26.01,0
					c0.716,5.604,4.444,8.15,9.32,9.525c6.117,1.727,12.142,1.584,17.951-1.162c4.006-1.891,5.77-4.859,5.47-8.832
					c-0.275-3.654-2.589-6.547-6.837-7.447c-4.16-0.883-8.446-1.273-12.697-1.611c-7.651-0.605-15.133-1.848-22.133-5.162
					c-13.15-6.217-17.538-17.234-15.669-30.518c1.726-12.264,8.957-20.52,20.263-24.889c16.397-6.336,32.521-5.707,47.472,4.182
					c9.013,5.961,13.201,14.809,13.1,25.867c-8.571,0-17,0-25.429,0.002c-1.571-6.346-5.025-9.52-11.675-9.762
					c-3.738-0.135-7.623,0.277-11.235,1.23c-4.028,1.059-6.047,4.586-5.859,8.502c0.176,3.684,1.95,6.205,6.291,7.119
					c5.895,1.242,11.955,1.674,17.894,2.727c4.927,0.871,9.908,1.754,14.643,3.305c14.654,4.809,20.317,15.881,18.946,30.855
					c-1.22,13.291-9.371,21.635-21.233,26.312c-17.335,6.84-34.493,6.193-50.589-3.67
					C697.391,457.59,692.856,448.492,692.962,436.885z"/>
			</g>
		</g>
	</g>
</g>
</svg>
