<?xml version="1.0" encoding="utf-8"?>
<!-- Generator: Adobe Illustrator 16.0.0, SVG Export Plug-In . SVG Version: 6.00 Build 0)  -->
<!DOCTYPE svg PUBLIC "-//W3C//DTD SVG 1.1//EN" "http://www.w3.org/Graphics/SVG/1.1/DTD/svg11.dtd">
<svg version="1.1" id="Layer_1" xmlns="http://www.w3.org/2000/svg" xmlns:xlink="http://www.w3.org/1999/xlink" x="0px" y="0px"
	 width="900px" height="900px" viewBox="0 0 900 900" enable-background="new 0 0 900 900" xml:space="preserve">
<g>
	<circle fill-rule="evenodd" clip-rule="evenodd" fill="#BC3535" cx="234.434" cy="450" r="113.418"/>
	<g>
		<g>
			<g>
				<path fill-rule="evenodd" clip-rule="evenodd" fill="#FFFFFF" d="M211.83,460c0-5.586-5.454-11-12.182-11h-14.619
					c-6.728,0-12.182,5.414-12.182,11l0,0c0,5.588,5.455,11,12.182,11h14.619C206.376,471,211.83,465.588,211.83,460L211.83,460z"/>
				<path fill="#383838" d="M199.648,473h-14.619c-7.499,0-14.077-6.047-14.077-13s6.578-13,14.077-13h14.619
					c7.498,0,14.077,6.047,14.077,13S207.146,473,199.648,473z M185.029,451c-5.888,0-10.288,4.629-10.288,9c0,4.373,4.4,9,10.288,9
					h14.619c5.888,0,10.288-4.627,10.288-9c0-4.371-4.4-9-10.288-9H185.029z"/>
			</g>
			<g>
				<path fill-rule="evenodd" clip-rule="evenodd" fill="#FFFFFF" d="M296.021,460c0-5.586-5.454-11-12.183-11H269.22
					c-6.728,0-12.182,5.414-12.182,11l0,0c0,5.588,5.454,11,12.182,11h14.619C290.567,471,296.021,465.588,296.021,460L296.021,460z
					"/>
				<path fill="#383838" d="M283.839,473H269.22c-7.499,0-14.077-6.047-14.077-13s6.578-13,14.077-13h14.619
					c7.5,0,14.078,6.047,14.078,13S291.338,473,283.839,473z M269.22,451c-5.888,0-10.287,4.629-10.287,9c0,4.373,4.399,9,10.287,9
					h14.619c5.888,0,10.289-4.627,10.289-9c0-4.371-4.4-9-10.289-9H269.22z"/>
			</g>
		</g>
		<g>
			<g>
				<path fill-rule="evenodd" clip-rule="evenodd" fill="#383838" d="M204.406,441.5c0-8.277-5.763-15.5-12.87-15.5h-15.443
					c-7.108,0-12.87,7.223-12.87,15.5l0,0c0,8.277,5.761,15.5,12.87,15.5h15.443C198.644,457,204.406,449.777,204.406,441.5
					L204.406,441.5z"/>
			</g>
			<g>
				<path fill-rule="evenodd" clip-rule="evenodd" fill="#383838" d="M305.645,441.5c0-8.277-5.761-15.5-12.869-15.5h-15.444
					c-7.106,0-12.869,7.223-12.869,15.5l0,0c0,8.277,5.762,15.5,12.869,15.5h15.444C299.883,457,305.645,449.777,305.645,441.5
					L305.645,441.5z"/>
			</g>
		</g>
		<g>
			<path fill-rule="evenodd" clip-rule="evenodd" fill="#FFFFFF" d="M287,463.729C287,492.598,263.597,516,234.729,516h-0.457
				C205.403,516,182,492.598,182,463.729v-20.457C182,414.402,205.403,391,234.271,391h0.457C263.597,391,287,414.402,287,443.271
				V463.729z"/>
			<path fill="#383838" d="M234.688,517h-0.297C204.524,517,180,493.695,180,463.826V442.9c0-29.867,24.524-53.9,54.391-53.9h0.297
				C264.554,389,289,413.033,289,442.9v20.926C289,493.695,264.554,517,234.688,517z M285,442.377
				C285,414.555,262.445,392,234.623,392h-0.246C206.555,392,184,414.555,184,442.377v21.246C184,491.445,206.555,514,234.377,514
				h0.246C262.445,514,285,491.445,285,463.623V442.377z"/>
		</g>
		<g>
			<path fill-rule="evenodd" clip-rule="evenodd" fill="#383838" d="M270.031,494.523c2.379-3.594,1.645-8.895-1.994-11.305
				l-28.625-18.965c-3.64-2.408-8.808-1.018-11.187,2.572l0,0c-2.379,3.592-1.645,8.895,1.995,11.307l28.626,18.961
				C262.483,499.504,267.652,498.111,270.031,494.523L270.031,494.523z"/>
		</g>
		<g>
			<path fill-rule="evenodd" clip-rule="evenodd" fill="#383838" d="M257.885,411c0-1.17-0.961-2-2.145-2h-42.612
				c-1.185,0-2.146,0.83-2.146,2l0,0c0,1.17,0.961,2,2.146,2h42.612C256.923,413,257.885,412.17,257.885,411L257.885,411z"/>
		</g>
		<g>
			<path fill-rule="evenodd" clip-rule="evenodd" fill="#383838" d="M248.447,402.5c0-1.168-0.961-1.5-2.144-1.5h-23.738
				c-1.186,0-2.146,0.332-2.146,1.5l0,0c0,1.17,0.96,1.5,2.146,1.5h23.738C247.486,404,248.447,403.67,248.447,402.5L248.447,402.5z
				"/>
		</g>
		<g>
			<g>
				<g>
					<path fill-rule="evenodd" clip-rule="evenodd" fill="#383838" d="M239.487,439.852c-1.228-1.852-0.849-4.584,1.027-5.828
						l14.755-9.773c1.875-1.242,4.541-0.525,5.766,1.324l0,0c1.227,1.854,0.848,4.586-1.028,5.828l-14.755,9.775
						C243.377,442.42,240.713,441.701,239.487,439.852L239.487,439.852z"/>
				</g>
				<g>
					<circle fill-rule="evenodd" clip-rule="evenodd" fill="#383838" cx="252.594" cy="449.873" r="5.577"/>
				</g>
			</g>
			<g>
				<g>
					<circle fill-rule="evenodd" clip-rule="evenodd" fill="#383838" cx="216.56" cy="449.873" r="5.577"/>
				</g>
				<g>
					<path fill-rule="evenodd" clip-rule="evenodd" fill="#383838" d="M229.534,439.852c1.227-1.852,0.848-4.584-1.028-5.828
						l-14.755-9.773c-1.876-1.242-4.541-0.525-5.766,1.324l0,0c-1.226,1.854-0.848,4.586,1.029,5.828l14.754,9.775
						C225.644,442.42,228.308,441.701,229.534,439.852L229.534,439.852z"/>
				</g>
			</g>
		</g>
		<g>
			<path fill-rule="evenodd" clip-rule="evenodd" fill="#383838" d="M262.753,469.577c0.94,2.115-0.185,3.423-2.5,3.423h-7.023
				c-2.316,0-6.054-0.017-8.306-0.554l-6.18-1.265c-2.253-0.537-5.929-0.392-8.169,0.196l-4.937,0.925
				c-2.24,0.588-5.968,0.697-8.283,0.697h-8.739c-2.316,0-3.441-1.308-2.5-3.423l3.444-7.739c0.941-2.115,3.604-3.838,5.92-3.838
				h37.908c2.315,0,4.98,1.723,5.921,3.838L262.753,469.577z"/>
		</g>
		<g>
			<g>
				<path fill-rule="evenodd" clip-rule="evenodd" fill="#FFFFFF" d="M263.19,496.943c-3.581,0-6.495-2.914-6.495-6.496
					c0-3.58,2.914-6.496,6.495-6.496c3.582,0,6.496,2.916,6.496,6.496C269.686,494.029,266.772,496.943,263.19,496.943z"/>
			</g>
			<g>
				<g>
					<path fill="#383838" d="M263.19,485.215c2.885,0,5.232,2.348,5.232,5.232s-2.347,5.232-5.232,5.232s-5.232-2.348-5.232-5.232
						S260.306,485.215,263.19,485.215 M263.19,482.689c-4.284,0-7.758,3.473-7.758,7.758s3.474,7.758,7.758,7.758
						c4.285,0,7.758-3.473,7.758-7.758S267.475,482.689,263.19,482.689L263.19,482.689z"/>
				</g>
			</g>
		</g>
	</g>
	<g>
		<g id="lLH4Wg_2_">
			<g>
				<path fill-rule="evenodd" clip-rule="evenodd" fill="#383838" d="M681.646,492.982c1.626,0.42,3.272,0.775,4.875,1.273
					c10.333,3.207,16.573,12.564,16.045,24.002c-0.488,10.539-6.221,18.537-15.477,21.602c-9.87,3.264-20.758,0.482-26.801-6.961
					c-10-12.318-6.172-36.646,14.819-39.506c0.314-0.043,0.601-0.27,0.9-0.41C677.886,492.982,679.766,492.982,681.646,492.982z
					 M679.027,496.375c-11.996-0.086-20.388,8.244-20.509,20.361c-0.125,12.48,8.167,21.242,20.17,21.307
					c11.779,0.064,20.307-8.539,20.41-20.588C699.207,505.09,690.989,496.461,679.027,496.375z"/>
				<path fill-rule="evenodd" clip-rule="evenodd" fill="#383838" d="M748.783,540.643c-2.861,0.57-4.662-0.727-6.344-2.99
					c-3.461-4.65-7.189-9.102-10.848-13.602c-0.442-0.547-1.125-1.26-1.713-1.273c-4.411-0.105-8.829-0.059-13.47-0.059
					c0,6.012,0,11.779,0,17.791c-1.195,0.057-2.173,0.102-3.33,0.156c0-15.674,0-31.232,0-46.564c7.49,0,14.934-0.533,22.252,0.162
					c6.426,0.607,11.079,6.66,11.381,12.98c0.332,6.947-3.326,12.285-9.888,14.41c-0.784,0.256-1.579,0.48-2.68,0.812
					c4.981,6.012,9.81,11.838,14.639,17.666C748.783,540.303,748.783,540.473,748.783,540.643z M716.392,519.719
					c4.753,0,9.177,0.006,13.602-0.004c1.023-0.004,2.052-0.006,3.066-0.109c5.81-0.602,9.826-4.812,10.333-10.801
					c0.44-5.215-2.859-10.596-8.178-11.412c-6.15-0.941-12.479-0.74-18.823-1.037C716.392,504.453,716.392,511.924,716.392,519.719z
					"/>
				<path fill-rule="evenodd" clip-rule="evenodd" fill="#383838" d="M379.782,493.494c3.052-0.568,4.18,1.172,5.183,3.748
					c4.55,11.654,9.29,23.234,13.97,34.838c0.284,0.703,0.645,1.375,1.107,2.352c3.014-7.6,5.908-14.934,8.832-22.256
					c2.146-5.375,4.454-10.689,6.443-16.123c0.86-2.352,2.067-3.041,4.607-2.047c-1.911,4.619-3.824,9.229-5.728,13.842
					c-4.25,10.309-8.486,20.625-12.767,30.92c-0.296,0.713-0.914,1.291-1.381,1.932c-0.571-0.652-1.365-1.215-1.683-1.977
					c-6.051-14.443-12.044-28.914-18.058-43.373c-0.124-0.301-0.347-0.557-0.525-0.83
					C379.782,494.178,379.782,493.836,379.782,493.494z"/>
				<path fill-rule="evenodd" clip-rule="evenodd" fill="#383838" d="M533.116,540.643c0-15.844,0-31.273,0-47.084
					c7.88,0.432,15.756-1.061,23.414,1.213c10.562,3.137,17.031,14.363,15.195,25.902c-2.029,12.756-10.438,19.934-23.41,19.967
					C543.303,540.654,538.291,540.643,533.116,540.643z M536.629,537.412c4.999,0,9.787,0.295,14.523-0.072
					c6.64-0.516,11.902-3.717,14.936-9.771c3.459-6.902,3.456-13.973-0.074-20.896c-2.603-5.105-6.842-8.613-12.427-9.297
					c-5.524-0.678-11.197-0.148-16.958-0.148C536.629,510.42,536.629,523.791,536.629,537.412z"/>
				<path fill-rule="evenodd" clip-rule="evenodd" fill="#383838" d="M465.058,540.418c-2.362,0.699-3.731,0.066-4.632-2.229
					c-1.234-3.168-2.738-6.246-4.352-9.242c-0.449-0.836-1.682-1.76-2.571-1.777c-7.427-0.141-14.858-0.123-22.288-0.012
					c-0.764,0.012-1.833,0.787-2.207,1.5c-1.624,3.088-3.049,6.283-4.531,9.445c-1.318,2.809-1.312,2.811-4.774,2.238
					c2.2-4.656,4.381-9.256,6.547-13.865c4.857-10.328,9.693-20.668,14.59-30.979c0.36-0.762,1.122-1.328,1.697-1.988
					c0.572,0.652,1.334,1.215,1.689,1.971c6.732,14.344,13.419,28.705,20.104,43.068C464.61,539.15,464.813,539.787,465.058,540.418
					z M442.504,499.07c-3.979,8.547-7.764,16.682-11.632,24.99c7.915,0,15.392,0,23.201,0
					C450.226,515.75,446.479,507.654,442.504,499.07z"/>
				<path fill-rule="evenodd" clip-rule="evenodd" fill="#383838" d="M619.897,540.402c-2.437,0.701-3.812,0.086-4.704-2.225
					c-1.192-3.09-2.877-5.99-4.141-9.059c-0.671-1.627-1.622-2.086-3.297-2.066c-7.002,0.084-14.007,0.088-21.009-0.002
					c-1.675-0.023-2.624,0.412-3.293,2.029c-1.235,2.988-2.906,5.807-4.033,8.826c-0.88,2.354-2.163,3.289-4.763,2.547
					c0.149-0.494,0.244-1.033,0.471-1.514c6.784-14.412,13.57-28.822,20.403-43.213c0.396-0.834,1.185-1.482,1.792-2.219
					c0.599,0.736,1.38,1.389,1.771,2.223c6.628,14.111,13.206,28.24,19.794,42.371C619.237,538.85,619.555,539.617,619.897,540.402z
					 M608.854,524.059c-3.896-8.408-7.649-16.508-11.574-24.973c-3.938,8.447-7.731,16.586-11.641,24.973
					C593.518,524.059,600.998,524.059,608.854,524.059z"/>
				<path fill-rule="evenodd" clip-rule="evenodd" fill="#383838" d="M652.357,493.74c0,1.033,0,1.854,0,2.881
					c-5.036,0-9.956,0-15.19,0c0,14.723,0,29.248,0,43.895c-1.22,0-2.12,0-3.395,0c0-14.516,0-29.031,0-43.768
					c-5.283,0-10.205,0-15.325,0c0-1.104,0-1.982,0-3.008C629.669,493.74,640.889,493.74,652.357,493.74z"/>
				<path fill-rule="evenodd" clip-rule="evenodd" fill="#383838" d="M511.766,496.49c-2.716,0-5.261,0-8.043,0
					c-0.068-0.951-0.126-1.748-0.196-2.727c6.714,0,13.238,0,19.91,0c0,0.848,0,1.643,0,2.701c-2.738,0-5.349,0-8.096,0
					c0,13.885,0,27.51,0,41.443c2.895,0,5.747,0,8.724,0c0,1.029,0,1.744,0,2.598c-6.989,0-13.872,0-20.965,0
					c-0.062-0.711-0.126-1.424-0.216-2.471c3.026,0,5.877,0,8.882,0C511.766,524.104,511.766,510.486,511.766,496.49z"/>
				<path fill-rule="evenodd" clip-rule="evenodd" fill="#383838" d="M499.684,537.541c0,1.129,0,1.957,0,2.943
					c-8.79,0-17.535,0-26.455,0c0-15.541,0-31.088,0-46.758c1.081,0,2.056,0,3.26,0c0,14.584,0,29.049,0,43.814
					C484.336,537.541,491.964,537.541,499.684,537.541z"/>
			</g>
		</g>
		<g id="_x31_daYUQ_2_">
			<g>
				<path fill-rule="evenodd" clip-rule="evenodd" fill="#383838" d="M379.782,371.908c3.174,0,6.146-0.002,9.12,0
					c13.038,0.012,26.078-0.125,39.113,0.074c18.271,0.277,31.377,13.758,31.257,31.975c-0.045,7.266-3.09,13.279-8.117,18.014
					c2.731,2.717,5.769,5.072,7.976,8.041c9.232,12.439,5.438,40.32-18.91,45.818c-3.151,0.713-6.44,1.115-9.669,1.137
					c-16.39,0.115-32.782,0.059-49.173,0.053c-0.461,0-0.924-0.055-1.596-0.098C379.782,442.023,379.782,407.16,379.782,371.908z
					 M407.321,453.053c7.015,0,13.884,0.041,20.752-0.018c5.015-0.039,8.284-3.447,8.321-8.504c0.038-5.291-3.117-8.762-8.261-8.84
					c-6.333-0.092-12.668-0.033-19.004-0.018c-0.616,0.002-1.233,0.158-1.809,0.236
					C407.321,441.646,407.321,447.205,407.321,453.053z M407.286,413.312c6.083,0,11.848,0.143,17.6-0.045
					c4.488-0.15,7.444-3.932,7.341-8.861c-0.102-4.797-3.071-8.312-7.479-8.473c-4.833-0.18-9.679-0.088-14.519-0.096
					c-0.977-0.002-1.954,0.084-2.943,0.131C407.286,401.879,407.286,407.439,407.286,413.312z"/>
				<path fill-rule="evenodd" clip-rule="evenodd" fill="#383838" d="M528.553,479.562c-11.216-0.191-21.695-2.871-31.126-9.139
					c-10.56-7.02-17.174-16.812-20.256-29.025c-3.052-12.09-2.944-24.168,1.021-36.033c5.146-15.395,15.654-25.846,30.86-31.109
					c17.942-6.215,35.402-4.803,51.584,5.623c11.439,7.367,18.255,18.184,20.969,31.385c2.721,13.238,1.971,26.34-3.86,38.746
					c-7.767,16.521-21.112,25.697-38.914,28.719c-1.554,0.264-3.13,0.443-4.704,0.566
					C532.272,479.438,530.41,479.475,528.553,479.562z M555.67,425.107c-0.253-2.305-0.396-4.629-0.779-6.91
					c-1.812-10.789-10.098-19.127-20.771-20.986c-11.415-1.988-22.631,3.008-27.923,12.516c-3.541,6.359-3.972,13.256-3.242,20.305
					c1.576,15.215,15.385,25.668,30.457,23.092C546.81,450.832,555.41,439.928,555.67,425.107z"/>
				<path fill-rule="evenodd" clip-rule="evenodd" fill="#383838" d="M621.154,444.75c0.63,5.365,4.174,7.953,8.804,9.348
					c6.265,1.887,12.489,1.801,18.49-1.051c3.993-1.902,5.74-4.885,5.422-8.863c-0.291-3.637-2.618-6.514-6.882-7.41
					c-4.162-0.879-8.448-1.264-12.701-1.604c-7.651-0.607-15.12-1.875-22.131-5.172c-12.127-5.703-17.956-17.271-15.687-30.562
					c2.087-12.219,9.074-20.498,20.375-24.85c16.397-6.312,32.525-5.693,47.468,4.229c8.99,5.971,13.177,14.811,13.049,25.855
					c-8.604,0-17.033,0-25.457,0c-1.376-6.111-4.823-9.393-11.132-9.734c-3.654-0.195-7.46,0.068-11.007,0.918
					c-4.561,1.09-6.819,4.621-6.59,8.822c0.209,3.844,2.438,6.508,7.118,7.383c5.655,1.059,11.438,1.438,17.113,2.422
					c4.926,0.854,9.907,1.75,14.638,3.311c14.588,4.811,20.289,15.855,18.892,30.891c-1.235,13.295-9.408,21.621-21.269,26.285
					c-17.34,6.818-34.505,6.172-50.587-3.717c-9.558-5.877-14.079-14.977-13.952-26.5C603.877,444.75,612.476,444.75,621.154,444.75
					z"/>
				<path fill-rule="evenodd" clip-rule="evenodd" fill="#383838" d="M692.962,444.701c8.857,0,17.385,0,26.01,0
					c0.716,5.604,4.444,8.15,9.32,9.525c6.117,1.727,12.142,1.584,17.951-1.162c4.006-1.891,5.77-4.859,5.47-8.832
					c-0.275-3.654-2.589-6.547-6.837-7.447c-4.16-0.883-8.446-1.273-12.697-1.611c-7.651-0.605-15.133-1.848-22.133-5.162
					c-13.15-6.217-17.538-17.234-15.669-30.518c1.726-12.264,8.957-20.52,20.263-24.889c16.397-6.336,32.521-5.707,47.472,4.182
					c9.013,5.961,13.201,14.809,13.1,25.867c-8.571,0-17,0-25.429,0.002c-1.571-6.346-5.025-9.52-11.675-9.762
					c-3.738-0.135-7.623,0.277-11.235,1.23c-4.028,1.059-6.047,4.586-5.859,8.502c0.176,3.684,1.95,6.205,6.291,7.119
					c5.895,1.242,11.955,1.674,17.894,2.727c4.927,0.871,9.908,1.754,14.643,3.305c14.654,4.809,20.317,15.881,18.946,30.855
					c-1.22,13.291-9.371,21.635-21.233,26.312c-17.335,6.84-34.493,6.193-50.589-3.67
					C697.391,465.406,692.856,456.309,692.962,444.701z"/>
			</g>
		</g>
	</g>
</g>
</svg>
