<?xml version="1.0" encoding="utf-8"?>
<!-- Generator: Adobe Illustrator 16.0.0, SVG Export Plug-In . SVG Version: 6.00 Build 0)  -->
<!DOCTYPE svg PUBLIC "-//W3C//DTD SVG 1.1//EN" "http://www.w3.org/Graphics/SVG/1.1/DTD/svg11.dtd">
<svg version="1.1" id="Layer_1" xmlns="http://www.w3.org/2000/svg" xmlns:xlink="http://www.w3.org/1999/xlink" x="0px" y="0px"
	 width="900px" height="900px" viewBox="0 0 900 900" enable-background="new 0 0 900 900" xml:space="preserve">
<g>
	<circle fill-rule="evenodd" clip-rule="evenodd" fill="#BC3535" cx="450" cy="344.445" r="207.029"/>
	<g>
		<g>
			<g>
				<path fill-rule="evenodd" clip-rule="evenodd" fill="#FFFFFF" d="M408.739,362.5c0-10.197-9.955-20.5-22.235-20.5h-26.686
					c-12.28,0-22.236,10.303-22.236,20.5l0,0c0,10.199,9.956,20.5,22.236,20.5h26.686C398.784,383,408.739,372.699,408.739,362.5
					L408.739,362.5z"/>
				<path fill="#383838" d="M386.503,387h-26.686c-13.688,0-25.695-11.309-25.695-24s12.007-24,25.695-24h26.686
					c13.687,0,25.695,11.309,25.695,24S400.19,387,386.503,387z M359.818,346c-10.747,0-18.778,8.521-18.778,16.5
					c0,7.982,8.031,16.5,18.778,16.5h26.686c10.747,0,18.778-8.518,18.778-16.5c0-7.979-8.031-16.5-18.778-16.5H359.818z"/>
			</g>
			<g>
				<path fill-rule="evenodd" clip-rule="evenodd" fill="#FFFFFF" d="M562.419,362.5c0-10.197-9.956-20.5-22.238-20.5h-26.685
					c-12.281,0-22.237,10.303-22.237,20.5l0,0c0,10.199,9.956,20.5,22.237,20.5h26.685C552.463,383,562.419,372.699,562.419,362.5
					L562.419,362.5z"/>
				<path fill="#383838" d="M540.181,387h-26.685c-13.688,0-25.695-11.309-25.695-24s12.007-24,25.695-24h26.685
					c13.689,0,25.697,11.309,25.697,24S553.87,387,540.181,387z M513.496,346c-10.747,0-18.778,8.521-18.778,16.5
					c0,7.982,8.031,16.5,18.778,16.5h26.685c10.748,0,18.78-8.518,18.78-16.5c0-7.979-8.032-16.5-18.78-16.5H513.496z"/>
			</g>
		</g>
		<g>
			<g>
				<path fill-rule="evenodd" clip-rule="evenodd" fill="#383838" d="M395.188,329c0-15.111-10.519-29-23.491-29h-28.19
					c-12.975,0-23.491,13.889-23.491,29l0,0c0,15.107,10.517,29,23.491,29h28.19C384.669,358,395.188,344.107,395.188,329
					L395.188,329z"/>
			</g>
			<g>
				<path fill-rule="evenodd" clip-rule="evenodd" fill="#383838" d="M579.984,329c0-15.111-10.517-29-23.49-29h-28.191
					c-12.972,0-23.49,13.889-23.49,29l0,0c0,15.107,10.519,29,23.49,29h28.191C569.468,358,579.984,344.107,579.984,329L579.984,329
					z"/>
			</g>
		</g>
		<g>
			<path fill-rule="evenodd" clip-rule="evenodd" fill="#FFFFFF" d="M546,369.586C546,422.281,503.282,465,450.586,465h-1.173
				C396.718,465,354,422.281,354,369.586v-38.172C354,278.719,396.718,236,449.414,236h1.173C503.282,236,546,278.719,546,331.414
				V369.586z"/>
			<path fill="#383838" d="M450.462,467h-0.542c-54.517,0-99.92-42.795-99.92-97.315v-38.197C350,276.969,395.404,233,449.92,233
				h0.542C504.979,233,550,276.969,550,331.487v38.197C550,424.205,504.979,467,450.462,467z M542,330.956
				C542,280.17,500.83,239,450.044,239h-0.089C399.17,239,358,280.17,358,330.956v38.088C358,419.83,399.17,461,449.956,461h0.089
				C500.83,461,542,419.83,542,369.044V330.956z"/>
		</g>
		<g>
			<path fill-rule="evenodd" clip-rule="evenodd" fill="#383838" d="M514.978,425.716c4.343-6.558,3.002-16.235-3.641-20.636
				l-52.252-34.614c-6.644-4.397-16.078-1.858-20.419,4.692l0,0c-4.344,6.559-3.002,16.235,3.641,20.639l52.253,34.612
				C501.199,434.807,510.634,432.268,514.978,425.716L514.978,425.716z"/>
		</g>
		<g>
			<path fill-rule="evenodd" clip-rule="evenodd" fill="#383838" d="M492.806,273.5c0-2.135-1.755-3.5-3.915-3.5h-77.782
				c-2.163,0-3.917,1.365-3.917,3.5l0,0c0,2.135,1.754,3.5,3.917,3.5h77.782C491.051,277,492.806,275.635,492.806,273.5
				L492.806,273.5z"/>
		</g>
		<g>
			<path fill-rule="evenodd" clip-rule="evenodd" fill="#383838" d="M475.579,257.5c0-2.134-1.755-3.5-3.914-3.5h-43.33
				c-2.164,0-3.917,1.366-3.917,3.5l0,0c0,2.135,1.753,3.5,3.917,3.5h43.33C473.824,261,475.579,259.635,475.579,257.5
				L475.579,257.5z"/>
		</g>
		<g>
			<g>
				<g>
					<path fill-rule="evenodd" clip-rule="evenodd" fill="#383838" d="M459.224,325.922c-2.241-3.381-1.549-8.368,1.875-10.64
						l26.934-17.84c3.424-2.267,8.288-0.958,10.525,2.419l0,0c2.239,3.381,1.548,8.369-1.877,10.638l-26.933,17.843
						C466.323,330.608,461.462,329.299,459.224,325.922L459.224,325.922z"/>
				</g>
				<g>
					<circle fill-rule="evenodd" clip-rule="evenodd" fill="#383838" cx="483.147" cy="344.213" r="10.18"/>
				</g>
			</g>
			<g>
				<g>
					<circle fill-rule="evenodd" clip-rule="evenodd" fill="#383838" cx="417.372" cy="344.213" r="10.18"/>
				</g>
				<g>
					<path fill-rule="evenodd" clip-rule="evenodd" fill="#383838" d="M441.055,325.922c2.24-3.381,1.548-8.368-1.876-10.64
						l-26.934-17.84c-3.425-2.267-8.289-0.958-10.525,2.419l0,0c-2.238,3.381-1.547,8.369,1.878,10.638l26.932,17.843
						C433.955,330.608,438.817,329.299,441.055,325.922L441.055,325.922z"/>
				</g>
			</g>
		</g>
		<g>
			<path fill-rule="evenodd" clip-rule="evenodd" fill="#383838" d="M501.691,380.465c1.717,3.863-0.337,6.535-4.564,6.535h-12.819
				c-4.228,0-11.05-0.316-15.161-1.299l-11.281-2.447c-4.112-0.982-10.821-0.787-14.911,0.285l-9.012,1.938
				c-4.089,1.072-10.894,1.522-15.12,1.522h-15.951c-4.228,0-6.28-2.672-4.564-6.535l6.287-14.293
				c1.718-3.861,6.579-7.172,10.808-7.172h69.196c4.227,0,9.091,3.311,10.808,7.172L501.691,380.465z"/>
		</g>
		<g>
			<g>
				<path fill-rule="evenodd" clip-rule="evenodd" fill="#FFFFFF" d="M502.49,430.134c-6.536,0-11.855-5.319-11.855-11.856
					s5.319-11.857,11.855-11.857c6.538,0,11.856,5.32,11.856,11.857S509.028,430.134,502.49,430.134z"/>
			</g>
			<g>
				<g>
					<path fill="#383838" d="M502.49,408.727c5.266,0,9.55,4.284,9.55,9.551c0,5.266-4.284,9.551-9.55,9.551s-9.55-4.285-9.55-9.551
						C492.94,413.011,497.225,408.727,502.49,408.727 M502.49,404.115c-7.82,0-14.161,6.341-14.161,14.162
						c0,7.822,6.341,14.161,14.161,14.161c7.821,0,14.161-6.339,14.161-14.161C516.651,410.456,510.312,404.115,502.49,404.115
						L502.49,404.115z"/>
				</g>
			</g>
		</g>
	</g>
	<g id="lLH4Wg_1_">
		<g>
			<path fill-rule="evenodd" clip-rule="evenodd" fill="#383838" d="M580.906,708.789c1.814,0.471,3.652,0.867,5.439,1.422
				c11.523,3.576,18.484,14.014,17.895,26.771c-0.543,11.754-6.938,20.676-17.262,24.094c-11.01,3.643-23.154,0.539-29.893-7.764
				c-11.156-13.74-6.885-40.875,16.529-44.064c0.35-0.047,0.67-0.301,1.002-0.459C576.713,708.789,578.809,708.789,580.906,708.789z
				 M577.986,712.574c-13.381-0.096-22.74,9.195-22.875,22.711c-0.141,13.92,9.109,23.693,22.498,23.766
				c13.137,0.072,22.65-9.523,22.766-22.965C600.494,722.295,591.328,712.67,577.986,712.574z"/>
			<path fill-rule="evenodd" clip-rule="evenodd" fill="#383838" d="M655.791,761.951c-3.189,0.637-5.199-0.811-7.076-3.336
				c-3.857-5.188-8.018-10.152-12.098-15.172c-0.494-0.609-1.256-1.404-1.91-1.42c-4.922-0.119-9.848-0.066-15.025-0.066
				c0,6.705,0,13.139,0,19.846c-1.332,0.062-2.424,0.113-3.715,0.174c0-17.482,0-34.836,0-51.938c8.357,0,16.656-0.594,24.822,0.18
				c7.166,0.678,12.355,7.43,12.693,14.479c0.369,7.75-3.711,13.703-11.029,16.074c-0.875,0.283-1.762,0.535-2.988,0.906
				c5.557,6.705,10.941,13.203,16.326,19.703C655.791,761.57,655.791,761.762,655.791,761.951z M619.664,738.611
				c5.301,0,10.234,0.008,15.17-0.004c1.141-0.004,2.287-0.006,3.42-0.123c6.48-0.668,10.959-5.367,11.525-12.045
				c0.492-5.818-3.189-11.82-9.121-12.73c-6.861-1.051-13.92-0.824-20.994-1.156C619.664,721.584,619.664,729.918,619.664,738.611z"
				/>
			<path fill-rule="evenodd" clip-rule="evenodd" fill="#383838" d="M244.209,709.361c3.403-0.635,4.661,1.307,5.781,4.18
				c5.073,13,10.361,25.916,15.582,38.859c0.315,0.783,0.718,1.533,1.233,2.623c3.361-8.477,6.59-16.658,9.851-24.824
				c2.395-5.996,4.968-11.924,7.187-17.984c0.96-2.623,2.305-3.391,5.139-2.283c-2.131,5.152-4.265,10.293-6.388,15.439
				c-4.741,11.498-9.466,23.004-14.241,34.488c-0.33,0.795-1.019,1.439-1.541,2.154c-0.637-0.729-1.521-1.355-1.876-2.203
				c-6.748-16.113-13.434-32.252-20.141-48.381c-0.139-0.334-0.388-0.619-0.586-0.926
				C244.209,710.123,244.209,709.742,244.209,709.361z"/>
			<path fill-rule="evenodd" clip-rule="evenodd" fill="#383838" d="M415.236,761.951c0-17.674,0-34.883,0-52.52
				c8.791,0.482,17.577-1.182,26.117,1.354c11.779,3.498,18.997,16.021,16.95,28.891c-2.264,14.229-11.643,22.234-26.113,22.273
				C426.599,761.965,421.009,761.951,415.236,761.951z M419.157,758.346c5.574,0,10.915,0.33,16.199-0.08
				c7.403-0.574,13.275-4.145,16.658-10.898c3.856-7.697,3.855-15.584-0.082-23.309c-2.902-5.693-7.632-9.607-13.861-10.369
				c-6.162-0.756-12.489-0.166-18.914-0.166C419.157,728.24,419.157,743.154,419.157,758.346z"/>
			<path fill-rule="evenodd" clip-rule="evenodd" fill="#383838" d="M339.324,761.699c-2.633,0.779-4.162,0.074-5.163-2.486
				c-1.38-3.533-3.056-6.967-4.855-10.307c-0.503-0.934-1.876-1.963-2.867-1.982c-8.285-0.158-16.575-0.139-24.86-0.014
				c-0.851,0.012-2.047,0.879-2.464,1.672c-1.811,3.445-3.398,7.008-5.054,10.535c-1.47,3.133-1.462,3.137-5.323,2.498
				c2.453-5.193,4.886-10.326,7.303-15.465c5.418-11.521,10.812-23.055,16.273-34.555c0.401-0.848,1.251-1.482,1.892-2.217
				c0.639,0.727,1.489,1.355,1.885,2.197c7.509,15.998,14.967,32.02,22.426,48.039C338.827,760.285,339.053,760.996,339.324,761.699
				z M314.168,715.58c-4.437,9.533-8.66,18.607-12.973,27.875c8.827,0,17.166,0,25.878,0
				C322.781,734.184,318.602,725.156,314.168,715.58z"/>
			<path fill-rule="evenodd" clip-rule="evenodd" fill="#383838" d="M512.033,761.682c-2.717,0.783-4.252,0.096-5.246-2.48
				c-1.33-3.447-3.209-6.682-4.619-10.104c-0.748-1.814-1.809-2.326-3.678-2.305c-7.811,0.092-15.623,0.098-23.434-0.004
				c-1.869-0.025-2.926,0.459-3.672,2.264c-1.379,3.334-3.24,6.477-4.5,9.846c-0.98,2.625-2.412,3.668-5.312,2.84
				c0.168-0.551,0.273-1.152,0.525-1.688c7.568-16.074,15.137-32.148,22.758-48.199c0.443-0.932,1.322-1.654,1.998-2.475
				c0.67,0.822,1.541,1.549,1.977,2.479c7.393,15.738,14.73,31.5,22.078,47.26C511.297,759.951,511.65,760.807,512.033,761.682z
				 M499.715,743.451c-4.346-9.377-8.533-18.41-12.908-27.854c-4.395,9.424-8.625,18.5-12.984,27.854
				C482.609,743.451,490.951,743.451,499.715,743.451z"/>
			<path fill-rule="evenodd" clip-rule="evenodd" fill="#383838" d="M548.238,709.637c0,1.15,0,2.066,0,3.211
				c-5.617,0-11.104,0-16.943,0c0,16.424,0,32.623,0,48.961c-1.359,0-2.365,0-3.785,0c0-16.189,0-32.381,0-48.818
				c-5.893,0-11.385,0-17.094,0c0-1.23,0-2.211,0-3.354C522.932,709.637,535.447,709.637,548.238,709.637z"/>
			<path fill-rule="evenodd" clip-rule="evenodd" fill="#383838" d="M391.422,712.703c-3.03,0-5.867,0-8.971,0
				c-0.076-1.061-0.141-1.951-0.219-3.043c7.488,0,14.767,0,22.208,0c0,0.947,0,1.834,0,3.014c-3.054,0-5.966,0-9.03,0
				c0,15.488,0,30.686,0,46.229c3.228,0,6.409,0,9.73,0c0,1.146,0,1.943,0,2.896c-7.795,0-15.474,0-23.385,0
				c-0.069-0.793-0.139-1.59-0.241-2.758c3.378,0,6.557,0,9.907,0C391.422,743.502,391.422,728.314,391.422,712.703z"/>
			<path fill-rule="evenodd" clip-rule="evenodd" fill="#383838" d="M377.945,758.492c0,1.258,0,2.182,0,3.281
				c-9.802,0-19.557,0-29.506,0c0-17.334,0-34.674,0-52.154c1.206,0,2.293,0,3.636,0c0,16.268,0,32.402,0,48.873
				C360.828,758.492,369.334,758.492,377.945,758.492z"/>
		</g>
	</g>
	<g id="_x31_daYUQ_1_">
		<g>
			<path fill-rule="evenodd" clip-rule="evenodd" fill="#383838" d="M227.365,573.744c3.54,0,6.856-0.002,10.172,0
				c14.542,0.014,29.088-0.14,43.627,0.082c20.378,0.312,34.996,15.346,34.863,35.666c-0.052,8.104-3.446,14.811-9.054,20.092
				c3.048,3.029,6.435,5.656,8.896,8.971c10.298,13.873,6.065,44.971-21.092,51.104c-3.516,0.795-7.185,1.244-10.786,1.27
				c-18.281,0.127-36.563,0.062-54.846,0.059c-0.515,0-1.03-0.062-1.78-0.111C227.365,651.949,227.365,613.064,227.365,573.744z
				 M258.083,664.252c7.824,0,15.486,0.047,23.146-0.018c5.595-0.045,9.241-3.846,9.282-9.486c0.042-5.902-3.477-9.773-9.213-9.859
				c-7.064-0.104-14.132-0.037-21.197-0.02c-0.688,0.002-1.376,0.176-2.018,0.264C258.083,651.531,258.083,657.73,258.083,664.252z
				 M258.042,619.926c6.785,0,13.215,0.16,19.632-0.051c5.005-0.166,8.303-4.383,8.187-9.883c-0.113-5.35-3.425-9.271-8.342-9.451
				c-5.391-0.199-10.794-0.098-16.192-0.105c-1.09-0.002-2.18,0.094-3.284,0.146C258.042,607.174,258.042,613.375,258.042,619.926z"
				/>
			<path fill-rule="evenodd" clip-rule="evenodd" fill="#383838" d="M393.303,693.82c-12.509-0.211-24.198-3.201-34.718-10.193
				c-11.777-7.828-19.155-18.752-22.593-32.373c-3.404-13.486-3.284-26.959,1.139-40.191c5.739-17.172,17.46-28.828,34.421-34.701
				c20.014-6.931,39.489-5.354,57.538,6.272c12.759,8.22,20.36,20.282,23.388,35.007c3.035,14.766,2.197,29.381-4.307,43.217
				c-8.661,18.43-23.549,28.662-43.403,32.033c-1.735,0.295-3.492,0.494-5.247,0.631
				C397.453,693.682,395.375,693.725,393.303,693.82z M423.55,633.082c-0.283-2.57-0.442-5.162-0.87-7.709
				c-2.02-12.033-11.263-21.332-23.166-23.406c-12.733-2.219-25.243,3.355-31.147,13.959c-3.948,7.094-4.43,14.785-3.615,22.648
				c1.759,16.971,17.159,28.631,33.971,25.756C413.667,661.775,423.262,649.611,423.55,633.082z"/>
			<path fill-rule="evenodd" clip-rule="evenodd" fill="#383838" d="M496.592,654.992c0.702,5.982,4.655,8.871,9.82,10.426
				c6.985,2.105,13.931,2.008,20.622-1.174c4.454-2.119,6.403-5.445,6.049-9.885c-0.324-4.057-2.92-7.264-7.676-8.266
				c-4.644-0.979-9.423-1.408-14.166-1.787c-8.534-0.678-16.867-2.092-24.685-5.77c-13.526-6.361-20.028-19.264-17.497-34.09
				c2.327-13.629,10.12-22.863,22.725-27.717c18.289-7.042,36.281-6.35,52.945,4.716c10.029,6.661,14.698,16.521,14.556,28.841
				c-9.598,0-19,0-28.396,0c-1.533-6.816-5.38-10.477-12.416-10.857c-4.074-0.219-8.32,0.074-12.276,1.021
				c-5.087,1.217-7.606,5.154-7.352,9.842c0.233,4.287,2.722,7.258,7.94,8.234c6.309,1.182,12.758,1.604,19.086,2.701
				c5.496,0.953,11.052,1.953,16.33,3.693c16.27,5.365,22.63,17.686,21.071,34.455c-1.378,14.828-10.494,24.117-23.723,29.318
				c-19.34,7.605-38.487,6.885-56.425-4.145c-10.661-6.555-15.705-16.707-15.563-29.559
				C477.32,654.992,486.91,654.992,496.592,654.992z"/>
			<path fill-rule="evenodd" clip-rule="evenodd" fill="#383838" d="M576.687,654.938c9.878,0,19.392,0,29.012,0
				c0.797,6.25,4.956,9.09,10.395,10.625c6.823,1.924,13.542,1.766,20.023-1.297c4.468-2.109,6.434-5.42,6.101-9.852
				c-0.306-4.074-2.887-7.303-7.625-8.307c-4.642-0.984-9.421-1.42-14.164-1.797c-8.534-0.676-16.879-2.061-24.688-5.756
				c-14.668-6.938-19.562-19.225-17.477-34.041c1.926-13.68,9.992-22.889,22.603-27.761c18.288-7.067,36.272-6.365,52.949,4.663
				c10.052,6.648,14.725,16.518,14.612,28.854c-9.562,0-18.963,0-28.363,0.002c-1.755-7.078-5.607-10.619-13.023-10.889
				c-4.169-0.15-8.504,0.309-12.533,1.371c-4.491,1.182-6.744,5.117-6.535,9.484c0.196,4.109,2.176,6.922,7.019,7.941
				c6.574,1.385,13.333,1.865,19.959,3.039c5.493,0.973,11.05,1.957,16.331,3.689c16.345,5.361,22.662,17.711,21.132,34.414
				c-1.358,14.826-10.45,24.131-23.681,29.35c-19.337,7.629-38.477,6.908-56.428-4.094
				C581.626,678.031,576.567,667.883,576.687,654.938z"/>
		</g>
	</g>
</g>
</svg>
