<?xml version="1.0" encoding="utf-8"?>
<!-- Generator: Adobe Illustrator 16.0.0, SVG Export Plug-In . SVG Version: 6.00 Build 0)  -->
<!DOCTYPE svg PUBLIC "-//W3C//DTD SVG 1.1//EN" "http://www.w3.org/Graphics/SVG/1.1/DTD/svg11.dtd">
<svg version="1.1" id="Layer_1" xmlns="http://www.w3.org/2000/svg" xmlns:xlink="http://www.w3.org/1999/xlink" x="0px" y="0px"
	 width="900px" height="900px" viewBox="0 0 900 900" enable-background="new 0 0 900 900" xml:space="preserve">
<g>
	<circle fill-rule="evenodd" clip-rule="evenodd" fill="#BC3535" cx="239.272" cy="450" r="112"/>
	<g>
		<g>
			<path fill-rule="evenodd" clip-rule="evenodd" fill="#FFFFFF" d="M210.123,392.268c7.456,0.383,14.757,1.299,21.893,3.33
				c2.479,0.707,4.868,0.691,7.354,0.01c12.514-3.428,25.144-3.979,37.879-1.344c2.452,0.508,2.556,0.672,2.015,3.17
				c-0.127,0.584-0.29,1.158-0.436,1.738c-0.213,0.844-0.601,1.324-1.529,1.734c-0.908,0.402-1.769,1.49-2.111,2.467
				c-0.566,1.621-0.752,3.385-1.011,5.102c-1.384,9.182-8.3,12.645-16.311,12.605c-11.073-0.057-16.869-8.256-19.065-16.193
				c-0.653-2.359-1.359-3.035-3.239-2.98c-1.633,0.047-2.354,0.727-2.875,2.676c-1.141,4.262-3.078,8.082-6.174,11.279
				c-4.145,4.277-9.363,5.562-15.041,5.098c-2.381-0.195-4.867-0.775-7.016-1.793c-4.953-2.344-6.813-6.811-7.419-12
				c-0.182-1.561-0.637-3.109-1.157-4.598c-0.225-0.641-0.889-1.52-1.435-1.582c-1.641-0.189-1.757-1.402-2.061-2.508
				c-0.972-3.537-0.872-3.863,2.774-4.406C200.126,393.333,205.134,392.858,210.123,392.268z M257.29,418.084
				c1.095-0.07,2.189-0.127,3.282-0.213c3.502-0.279,6.674-1.354,8.296-4.719c1.836-3.811,2.747-7.902,2.452-12.176
				c-0.138-1.986-1.232-3.469-3.149-3.936c-6.222-1.521-12.508-2.082-18.777-0.316c-5.668,1.594-6.87,3.469-5.889,9.238
				C244.704,413.008,248.425,418.487,257.29,418.084z M213.728,395.606c-1.836,0.154-3.677,0.266-5.506,0.475
				c-1.285,0.146-2.564,0.381-3.829,0.652c-3.165,0.68-4.62,2.191-4.3,5.432c0.335,3.385,1.066,6.773,2.036,10.037
				c0.849,2.857,3.114,4.613,6.06,5.205c1.847,0.371,3.746,0.547,5.631,0.645c3.574,0.188,6.976-0.332,9.711-2.963
				c3.303-3.18,4.324-7.291,4.676-11.641c0.232-2.889-0.771-4.453-3.401-5.67C221.292,396.153,217.572,395.616,213.728,395.606z"/>
			<path fill-rule="evenodd" clip-rule="evenodd" fill="#BC3535" d="M257.29,418.084c-8.865,0.402-12.586-5.076-13.785-12.121
				c-0.981-5.77,0.221-7.645,5.889-9.238c6.27-1.766,12.556-1.205,18.777,0.316c1.917,0.467,3.012,1.949,3.149,3.936
				c0.295,4.273-0.616,8.365-2.452,12.176c-1.622,3.365-4.794,4.439-8.296,4.719C259.479,417.958,258.385,418.014,257.29,418.084z"
				/>
			<path fill-rule="evenodd" clip-rule="evenodd" fill="#BC3535" d="M213.728,395.606c3.845,0.01,7.564,0.547,11.077,2.172
				c2.63,1.217,3.634,2.781,3.401,5.67c-0.352,4.35-1.373,8.461-4.676,11.641c-2.735,2.631-6.137,3.15-9.711,2.963
				c-1.885-0.098-3.784-0.273-5.631-0.645c-2.945-0.592-5.211-2.348-6.06-5.205c-0.97-3.264-1.701-6.652-2.036-10.037
				c-0.32-3.24,1.135-4.752,4.3-5.432c1.265-0.271,2.544-0.506,3.829-0.652C210.051,395.872,211.892,395.76,213.728,395.606z"/>
		</g>
		<g>
			
				<path fill-rule="evenodd" clip-rule="evenodd" fill="#BC3535" stroke="#FFFFFF" stroke-width="3" stroke-linecap="round" stroke-linejoin="round" stroke-miterlimit="10" d="
				M235.572,529.731c-1.583-1.59-3.208-3.225-4.836-4.855c-2.468-2.471-4.917-4.963-7.421-7.396
				c-0.605-0.588-0.785-1.131-0.619-1.953c3.126-15.426,6.236-49.216,9.311-64.653c0.182-0.904,0.484-1.246,1.427-1.197
				c1.567,0.078,3.146,0.07,4.714,0c0.855-0.037,1.102,0.314,1.256,1.088c2.76,13.855,5.549,46.067,8.332,59.917
				c0.336,1.666,0.718,3.324,0.992,5c0.074,0.449-0.006,1.113-0.293,1.406c-4.135,4.199-8.318,8.352-12.492,12.512
				C235.888,529.651,235.786,529.657,235.572,529.731z"/>
			
				<path fill-rule="evenodd" clip-rule="evenodd" fill="#BC3535" stroke="#FFFFFF" stroke-width="3" stroke-linecap="round" stroke-linejoin="round" stroke-miterlimit="10" d="
				M226.54,439.848c3.12-3.117,6.138-6.135,9.031-9.027c2.959,2.963,5.996,6.004,9.163,9.176c-1.272,1.264-2.768,2.768-4.296,4.238
				c-0.188,0.182-0.55,0.248-0.832,0.252c-2.574,0.018-5.148,0.02-7.723-0.004c-0.32-0.002-0.729-0.09-0.943-0.297
				C229.433,442.745,227.965,441.262,226.54,439.848z"/>
		</g>
		
			<path fill-rule="evenodd" clip-rule="evenodd" fill="#BC3535" stroke="#FFFFFF" stroke-width="3" stroke-linecap="round" stroke-linejoin="round" stroke-miterlimit="10" d="
			M276.5,470.923c0,1.781-1.124,3.223-2.5,3.223l0,0c-1.376,0-2.5-1.441-2.5-3.223v-18.299c0-1.779,1.124-3.223,2.5-3.223l0,0
			c1.376,0,2.5,1.443,2.5,3.223V470.923z"/>
		
			<path fill-rule="evenodd" clip-rule="evenodd" fill="#BC3535" stroke="#FFFFFF" stroke-width="3" stroke-linecap="round" stroke-linejoin="round" stroke-miterlimit="10" d="
			M270.5,468.922c0,1.782-1.124,3.224-2.5,3.224l0,0c-1.376,0-2.5-1.441-2.5-3.224v-18.298c0-1.779,1.124-3.223,2.5-3.223l0,0
			c1.376,0,2.5,1.443,2.5,3.223V468.922z"/>
		<g>
			<path fill-rule="evenodd" clip-rule="evenodd" fill="#BC3535" d="M285.687,459c0.55,0,1.313,0.021,1.313,0.57v15.206
				c0,0.55-0.522,1.263-0.969,1.584l-9.968,7.105c-0.447,0.321-1.217,0.321-1.663,0l-9.726-7.105
				c-0.446-0.321-0.674-1.034-0.674-1.584V459.57c0-0.55,0.137-0.57,0.687-0.57H285.687z"/>
			<path fill="none" stroke="#FFFFFF" stroke-width="3" stroke-linecap="round" stroke-linejoin="round" stroke-miterlimit="10" d="
				M285.687,458.5c0.55,0,0.813,0.521,0.813,1.07v15.206c0,0.55-0.272,1.263-0.719,1.584l-9.843,7.105
				c-0.447,0.321-1.154,0.321-1.601,0l-9.945-7.105c-0.446-0.321-0.893-1.034-0.893-1.584V459.57c0-0.55,0.637-1.07,1.187-1.07
				H285.687z"/>
		</g>
	</g>
	<g>
		<g>
			<g id="IvOH6F_1_">
				<g>
					<path fill-rule="evenodd" clip-rule="evenodd" fill="#BC3535" d="M534.479,357.359c3.831,0.547,7.747,0.764,11.48,1.699
						c23.665,5.926,38.756,20.619,44.051,44.566c6.926,31.324-14.23,62.963-45.858,68.16c-23.96,3.938-44.305-3.088-59.084-22.98
						c-9.264-12.467-12.307-26.801-10.024-42.146c2.762-18.568,12.514-32.457,28.786-41.715c7.488-4.26,15.628-6.537,24.234-7.129
						c1.057-0.07,2.104-0.299,3.154-0.455C532.305,357.359,533.391,357.359,534.479,357.359z M559.669,415.07
						c-0.056-15.275-11.546-26.682-26.86-26.664c-15.44,0.018-27.095,11.584-27.027,26.828
						c0.065,15.355,11.631,26.816,27.056,26.811C548.25,442.041,559.726,430.504,559.669,415.07z"/>
					<path fill-rule="evenodd" clip-rule="evenodd" fill="#BC3535" d="M382.869,360.076c14.848,0,29.695-0.035,44.542,0.016
						c8.125,0.027,16.081,1.092,23.352,5.031c9.056,4.908,13.559,12.791,14.141,22.893c0.654,11.373-1.314,15.861-10.468,25.436
						c2,1.633,4.169,3.1,5.971,4.928c7.637,7.748,9.103,17.236,6.995,27.418c-2.647,12.795-12.163,21.424-25.683,23.434
						c-4.633,0.689-9.352,1.062-14.036,1.105c-14.937,0.137-29.876,0.051-44.814,0.051
						C382.869,433.617,382.869,396.846,382.869,360.076z M414.79,427.646c0,5.277,0,10.301,0,15.496
						c5.077,0,10.031,0.266,14.943-0.08c4.255-0.297,7.004-3.799,6.945-7.924c-0.06-4.113-2.876-7.189-7.398-7.436
						C424.523,427.445,419.742,427.646,414.79,427.646z M414.808,401.844c4.117,0,8.087,0.199,12.027-0.055
						c4.165-0.268,6.634-3.117,6.664-7.09c0.03-3.938-2.407-6.984-6.487-7.312c-4.006-0.324-8.058-0.072-12.203-0.072
						C414.808,392.25,414.808,396.992,414.808,401.844z"/>
					<path fill-rule="evenodd" clip-rule="evenodd" fill="#BC3535" d="M639.354,357.359c5.521,1.264,11.255,1.961,16.521,3.91
						c10.494,3.887,17.787,11.424,22.332,21.963c-8.677,5.078-17.237,10.088-25.963,15.193c-0.991-1.672-1.839-3.322-2.887-4.834
						c-3.669-5.299-9.718-7.729-15.589-6.361c-2.555,0.594-4.618,1.824-5.062,4.613c-0.441,2.777,0.943,4.938,3.384,5.887
						c5.453,2.121,11.079,3.795,16.557,5.855c5.729,2.156,11.613,4.092,16.995,6.943c11.008,5.834,15.733,15.596,15.394,27.811
						c-0.468,16.883-10.09,28.658-26.565,32.545c-14.473,3.416-28.77,2.947-42.43-3.396c-9.686-4.5-16.465-11.867-19.967-22.336
						c8.933-5.174,17.823-10.322,26.399-15.287c2.233,3.059,3.962,6.355,6.53,8.754c5.633,5.266,12.587,5.846,19.828,4.211
						c2.444-0.553,4.48-1.855,4.644-4.615c0.159-2.678-1.516-4.463-3.861-5.326c-3.802-1.404-7.669-2.67-11.573-3.756
						c-7.338-2.041-14.481-4.498-20.998-8.545c-11.033-6.85-16.576-16.752-15.874-29.729c0.741-13.686,7.567-23.635,20.081-29.154
						c4.543-2.004,9.692-2.637,14.574-3.854c1.038-0.258,2.12-0.334,3.183-0.492C636.458,357.359,637.904,357.359,639.354,357.359z"
						/>
					<path fill-rule="evenodd" clip-rule="evenodd" fill="#BC3535" d="M771.946,440.5c-0.419,2.201-0.72,4.432-1.276,6.598
						c-2.889,11.268-10.191,18.674-20.957,22.324c-15.838,5.369-31.698,4.975-47.02-2.006c-9.711-4.426-16.41-11.883-19.869-22.264
						c8.923-5.17,17.743-10.277,26.736-15.486c1.046,1.84,1.987,3.637,3.057,5.354c5.665,9.096,16.999,9.717,23.813,7.566
						c1.995-0.627,3.573-1.918,3.787-4.17c0.219-2.316-0.946-4.141-2.968-5.039c-2.869-1.273-5.845-2.381-8.867-3.225
						c-8.361-2.334-16.698-4.689-24.176-9.291c-12.669-7.797-18.122-19.154-15.866-33.801c2.133-13.844,10.592-22.666,23.674-26.959
						c4.405-1.447,9.15-1.857,13.741-2.742c1.449,0,2.897,0,4.347,0c0.975,0.168,1.939,0.402,2.92,0.496
						c8.642,0.83,16.564,3.584,23.458,8.936c5.578,4.328,9.768,9.734,12.406,16.49c-8.771,5.127-17.33,10.131-25.988,15.191
						c-0.486-0.932-0.896-1.725-1.312-2.514c-3.676-7.008-10.769-10.531-17.497-8.652c-2.417,0.674-4.33,2.014-4.67,4.688
						c-0.318,2.516,0.894,4.477,3.078,5.557c2.573,1.271,5.264,2.34,7.976,3.289c7.31,2.562,14.817,4.633,21.953,7.602
						c9.671,4.023,16.505,10.906,18.667,21.613c0.301,1.484,0.568,2.979,0.853,4.467C771.946,436.516,771.946,438.508,771.946,440.5
						z"/>
				</g>
			</g>
		</g>
		<g>
			<path fill-rule="evenodd" clip-rule="evenodd" fill="#383838" d="M534.929,488.794c8.452,0,16.938-0.919,25.143,0.212
				c12.948,1.784,21.927,15.929,19.869,29.49c-1.995,13.147-10.355,22.161-22.362,23.123c-7.439,0.596-14.962,0.11-22.649,0.11
				C534.929,523.965,534.929,506.245,534.929,488.794z M538.965,537.961c6.149,0,12.004,0.054,17.857-0.039
				c1.413-0.024,2.853-0.427,4.223-0.846c9.371-2.873,15.543-12.122,15.104-22.553c-0.437-10.345-5.762-18.463-14.342-21.212
				c-7.453-2.389-15.15-0.864-22.842-1.224C538.965,507.551,538.965,522.609,538.965,537.961z"/>
			<path fill-rule="evenodd" clip-rule="evenodd" fill="#383838" d="M733.974,488.437c7.647,0,15.233-0.411,22.753,0.116
				c7.303,0.514,12.967,6.393,13.824,13.124c0.978,7.666-2.752,14.08-9.932,17.087c-0.413,0.173-0.822,0.352-1.566,0.673
				c4.351,7.376,8.664,14.69,13.009,22.056c-3.157,1.115-4.873-0.041-6.323-2.713c-3.05-5.621-6.484-11.034-9.586-16.63
				c-0.976-1.766-2.113-2.343-4.059-2.287c-4.59,0.129-9.188,0.041-14.129,0.041c0,7.365,0,14.535,0,21.816
				c-1.497,0-2.644,0-3.991,0C733.974,523.971,733.974,506.25,733.974,488.437z M738.037,515.928
				c0.941,0.053,1.568,0.119,2.195,0.118c5.05-0.003,10.105,0.138,15.146-0.068c6.587-0.271,11.419-5.558,11.336-12.071
				c-0.083-6.401-5.157-11.606-11.703-11.794c-4.685-0.137-9.378-0.033-14.065-0.036c-0.95,0-1.899,0-3.024,0
				c0,7.633-0.002,14.84,0.005,22.046C737.927,514.646,737.987,515.168,738.037,515.928z"/>
			<path fill-rule="evenodd" clip-rule="evenodd" fill="#383838" d="M695.816,542.636c-15.775-0.294-27.711-12.614-27.349-28.226
				c0.362-15.501,12.714-27.186,28.397-26.864c15.005,0.308,26.899,12.691,26.675,27.773
				C723.312,530.798,711.009,542.918,695.816,542.636z M695.757,538.706c13.112,0.163,23.637-10.156,23.793-23.329
				c0.156-13.064-10.101-23.806-22.896-23.976c-13.388-0.178-23.994,9.984-24.224,23.21
				C672.197,527.901,682.498,538.541,695.757,538.706z"/>
			<path fill-rule="evenodd" clip-rule="evenodd" fill="#383838" d="M446.396,488.516c3.107-0.909,4.604,0.08,5.727,3.069
				c6.044,16.1,12.341,32.104,18.542,48.146c0.221,0.571,0.37,1.169,0.571,1.812c-2.778,0.868-4.399,0.281-5.221-2.696
				c-0.86-3.107-2.209-6.092-3.494-9.065c-0.28-0.648-1.193-1.452-1.822-1.458c-8.479-0.097-16.958-0.065-25.522-0.065
				c-1.375,3.555-2.929,6.915-3.954,10.428c-0.834,2.859-2.323,3.778-5.425,2.864C432.679,523.833,439.562,506.107,446.396,488.516z
				 M436.749,524.283c8.065,0,15.742,0,23.747,0c-3.949-10.307-7.801-20.361-11.875-30.996
				C444.531,503.964,440.685,514.008,436.749,524.283z"/>
			<path fill-rule="evenodd" clip-rule="evenodd" fill="#383838" d="M629.09,541.551c-3.077,0.942-4.553-0.039-5.342-2.902
				c-0.833-3.023-2.119-5.935-3.394-8.813c-0.308-0.693-1.341-1.503-2.05-1.512c-8.389-0.104-16.779-0.067-25.298-0.067
				c-1.363,3.518-2.681,6.941-4.014,10.36c-1.306,3.349-1.312,3.346-5.421,3.07c6.928-17.841,13.808-35.557,20.657-53.197
				c2.983-0.797,4.56-0.019,5.705,3.047c6.056,16.191,12.392,32.279,18.626,48.403C628.749,540.428,628.89,540.936,629.09,541.551z
				 M618.33,524.303c-3.955-10.323-7.808-20.381-11.883-31.015c-4.089,10.673-7.936,20.716-11.879,31.015
				C602.59,524.303,610.217,524.303,618.33,524.303z"/>
			<path fill-rule="evenodd" clip-rule="evenodd" fill="#383838" d="M404.812,536.429c5.998-16.293,11.84-32.161,17.701-48.081
				c1.332,0,2.582,0,4.256,0c-1.007,2.824-1.917,5.484-2.9,8.118c-5.353,14.346-10.746,28.679-16.057,43.04
				c-0.597,1.609-1.215,2.445-3.179,2.43c-1.942-0.018-2.358-1.02-2.892-2.454c-5.888-15.875-11.823-31.732-17.738-47.597
				c-0.405-1.084-0.753-2.19-1.134-3.306c4.095-0.709,4.083-0.705,5.457,3.05c5.011,13.704,10.029,27.405,15.05,41.104
				C403.773,533.818,404.212,534.889,404.812,536.429z"/>
			<path fill-rule="evenodd" clip-rule="evenodd" fill="#383838" d="M628.709,488.394c12.59,0,25.006,0,37.552,0
				c0,1.181,0,2.227,0,3.617c-5.471,0-10.92,0-16.625,0c0,16.721,0,33.102,0,49.656c-1.469,0-2.685,0-4.179,0
				c0-16.386,0-32.777,0-49.521c-5.706,0-11.152,0-16.748,0C628.709,490.743,628.709,489.694,628.709,488.394z"/>
			<path fill-rule="evenodd" clip-rule="evenodd" fill="#383838" d="M479.615,488.39c1.207,0,2.353,0,3.844,0
				c0,16.428,0,32.886,0,49.59c8.517,0,16.693,0,25.048,0c0,1.355,0,2.463,0,3.719c-9.596,0-19.139,0-28.892,0
				C479.615,523.975,479.615,506.248,479.615,488.39z"/>
			<path fill-rule="evenodd" clip-rule="evenodd" fill="#383838" d="M521.371,541.711c-1.415,0-2.562,0-3.852,0
				c0-17.798,0-35.467,0-53.294c1.286,0,2.495,0,3.852,0C521.371,506.168,521.371,523.836,521.371,541.711z"/>
		</g>
	</g>
</g>
</svg>
